<mxfile host="app.diagrams.net" modified="2022-01-21T07:58:09.086Z" agent="5.0 (Windows NT 10.0; Win64; x64) AppleWebKit/537.36 (KHTML, like Gecko) Chrome/97.0.4692.71 Safari/537.36" etag="l6OJvrVHW_zxuFx2PG5S" version="16.4.3" type="github">
  <diagram id="8F2Q0qGeBDUZFJQA5iAY" name="Page-1">
    <mxGraphModel dx="1038" dy="575" grid="1" gridSize="10" guides="1" tooltips="1" connect="1" arrows="1" fold="1" page="1" pageScale="1" pageWidth="850" pageHeight="1100" math="0" shadow="0">
      <root>
        <mxCell id="0" />
        <mxCell id="1" parent="0" />
        <mxCell id="hdoPGR2o2hAL8BpOgIAT-12" style="edgeStyle=orthogonalEdgeStyle;rounded=0;orthogonalLoop=1;jettySize=auto;html=1;exitX=1;exitY=0.5;exitDx=0;exitDy=0;endArrow=classic;endFill=1;" edge="1" parent="1" source="hdoPGR2o2hAL8BpOgIAT-1" target="hdoPGR2o2hAL8BpOgIAT-2">
          <mxGeometry relative="1" as="geometry" />
        </mxCell>
        <mxCell id="hdoPGR2o2hAL8BpOgIAT-1" value="&lt;b&gt;PizzaStore&lt;/b&gt;&lt;br&gt;-----------------------------&lt;br&gt;orderPizza()" style="rounded=0;whiteSpace=wrap;html=1;" vertex="1" parent="1">
          <mxGeometry x="70" y="160" width="120" height="60" as="geometry" />
        </mxCell>
        <mxCell id="hdoPGR2o2hAL8BpOgIAT-13" style="edgeStyle=orthogonalEdgeStyle;rounded=0;orthogonalLoop=1;jettySize=auto;html=1;entryX=0;entryY=0.5;entryDx=0;entryDy=0;endArrow=classic;endFill=1;" edge="1" parent="1" source="hdoPGR2o2hAL8BpOgIAT-2" target="hdoPGR2o2hAL8BpOgIAT-3">
          <mxGeometry relative="1" as="geometry" />
        </mxCell>
        <mxCell id="hdoPGR2o2hAL8BpOgIAT-2" value="&lt;b&gt;SimplePizzaFactory&lt;/b&gt;&lt;br&gt;-----------------------------&lt;br&gt;createPizza()" style="rounded=0;whiteSpace=wrap;html=1;" vertex="1" parent="1">
          <mxGeometry x="300" y="160" width="120" height="60" as="geometry" />
        </mxCell>
        <mxCell id="hdoPGR2o2hAL8BpOgIAT-3" value="&lt;b&gt;Pizza&lt;br&gt;&lt;/b&gt;----------------------------&lt;br&gt;prepare()&lt;br&gt;bake()&lt;br&gt;cut()&lt;br&gt;box()" style="rounded=0;whiteSpace=wrap;html=1;" vertex="1" parent="1">
          <mxGeometry x="530" y="140" width="120" height="100" as="geometry" />
        </mxCell>
        <mxCell id="hdoPGR2o2hAL8BpOgIAT-4" value="&lt;b&gt;CheesePizza&lt;br&gt;&lt;/b&gt;-----------------------------" style="rounded=0;whiteSpace=wrap;html=1;" vertex="1" parent="1">
          <mxGeometry x="450" y="370" width="120" height="60" as="geometry" />
        </mxCell>
        <mxCell id="hdoPGR2o2hAL8BpOgIAT-5" value="&lt;b&gt;VeggiePizza&lt;br&gt;&lt;/b&gt;-----------------------------" style="rounded=0;whiteSpace=wrap;html=1;" vertex="1" parent="1">
          <mxGeometry x="610" y="370" width="120" height="60" as="geometry" />
        </mxCell>
        <mxCell id="hdoPGR2o2hAL8BpOgIAT-6" value="&lt;b&gt;PepperoniPizza&lt;br&gt;&lt;/b&gt;-----------------------------" style="rounded=0;whiteSpace=wrap;html=1;" vertex="1" parent="1">
          <mxGeometry x="670" y="320" width="120" height="60" as="geometry" />
        </mxCell>
        <mxCell id="hdoPGR2o2hAL8BpOgIAT-7" value="&lt;b&gt;ClamPizza&lt;br&gt;&lt;/b&gt;-----------------------------" style="rounded=0;whiteSpace=wrap;html=1;" vertex="1" parent="1">
          <mxGeometry x="380" y="320" width="120" height="60" as="geometry" />
        </mxCell>
        <mxCell id="hdoPGR2o2hAL8BpOgIAT-8" value="" style="endArrow=block;html=1;rounded=0;entryX=0.25;entryY=1;entryDx=0;entryDy=0;exitX=0.75;exitY=0;exitDx=0;exitDy=0;endFill=0;" edge="1" parent="1" source="hdoPGR2o2hAL8BpOgIAT-7" target="hdoPGR2o2hAL8BpOgIAT-3">
          <mxGeometry width="50" height="50" relative="1" as="geometry">
            <mxPoint x="400" y="260" as="sourcePoint" />
            <mxPoint x="450" y="210" as="targetPoint" />
          </mxGeometry>
        </mxCell>
        <mxCell id="hdoPGR2o2hAL8BpOgIAT-9" value="" style="endArrow=block;html=1;rounded=0;entryX=0.75;entryY=1;entryDx=0;entryDy=0;exitX=0.347;exitY=-0.03;exitDx=0;exitDy=0;exitPerimeter=0;endFill=0;" edge="1" parent="1" source="hdoPGR2o2hAL8BpOgIAT-6" target="hdoPGR2o2hAL8BpOgIAT-3">
          <mxGeometry width="50" height="50" relative="1" as="geometry">
            <mxPoint x="660" y="310" as="sourcePoint" />
            <mxPoint x="710" y="260" as="targetPoint" />
          </mxGeometry>
        </mxCell>
        <mxCell id="hdoPGR2o2hAL8BpOgIAT-10" value="" style="endArrow=block;html=1;rounded=0;exitX=0.827;exitY=-0.05;exitDx=0;exitDy=0;exitPerimeter=0;entryX=0.447;entryY=0.998;entryDx=0;entryDy=0;entryPerimeter=0;endFill=0;" edge="1" parent="1" source="hdoPGR2o2hAL8BpOgIAT-4" target="hdoPGR2o2hAL8BpOgIAT-3">
          <mxGeometry width="50" height="50" relative="1" as="geometry">
            <mxPoint x="550" y="320" as="sourcePoint" />
            <mxPoint x="600" y="270" as="targetPoint" />
          </mxGeometry>
        </mxCell>
        <mxCell id="hdoPGR2o2hAL8BpOgIAT-11" value="" style="endArrow=block;html=1;rounded=0;exitX=0.25;exitY=0;exitDx=0;exitDy=0;exitPerimeter=0;entryX=0.667;entryY=1;entryDx=0;entryDy=0;entryPerimeter=0;endFill=0;" edge="1" parent="1" source="hdoPGR2o2hAL8BpOgIAT-5" target="hdoPGR2o2hAL8BpOgIAT-3">
          <mxGeometry width="50" height="50" relative="1" as="geometry">
            <mxPoint x="600" y="340" as="sourcePoint" />
            <mxPoint x="650" y="290" as="targetPoint" />
          </mxGeometry>
        </mxCell>
      </root>
    </mxGraphModel>
  </diagram>
</mxfile>
